<?xml version="1.0" encoding="UTF-8" standalone="no"?>
<svg width="502px" height="359px" viewBox="0 0 502 359" version="1.1" xmlns="http://www.w3.org/2000/svg" xmlns:xlink="http://www.w3.org/1999/xlink" xmlns:sketch="http://www.bohemiancoding.com/sketch/ns">
    <!-- Generator: Sketch 3.3.2 (12043) - http://www.bohemiancoding.com/sketch -->
    <title>usa</title>
    <desc>Created with Sketch.</desc>
    <defs></defs>
    
    <style>
        #region1:hover, #region2:hover, #region3:hover, #region4:hover, #region5:hover, #region6:hover, #region7:hover, #region8:hover, #region9:hover, #region10:hover, #region11:hover, #region12:hover, #region13:hover, #region14:hover, #region15:hover {
            fill: #fffb95;
            cursor: pointer;
        }
    </style>
    
    
    <g id="Page-1" stroke="none" stroke-width="1" fill="none" fill-rule="evenodd" sketch:type="MSPage">
        <g id="usa" sketch:type="MSLayerGroup" transform="translate(1.000000, 1.000000)" stroke="#4A4A4A">
            <g id="region15" transform="translate(0.000000, 292.349727)" fill="#FF6601" sketch:type="MSShapeGroup">
                <path d="M94.8137238,8.64320071 L94.6056039,42.0615608 L98.0271303,42.9216117 L102.407431,47.9725211 L104.820377,43.4943861 L118.50915,58.0743397 L118.382855,65.4599271 L106.885566,50.7305541 L108.982774,57.3245745 L107.053663,58.4825749 L102.742735,51.3157801 L98.2041211,49.9621115 L92.8748292,45.1166539 L88.4571736,44.8889672 L83.4943149,39.2056936 L83.3271075,43.9622111 L79.3034566,43.9622111 L75.2299991,45.3754696 L79.8762309,38.8703893 L77.4730689,38.1677624 L70.7420808,43.9301927 L71.3557676,46.6980092 L65.4448073,51.9668218 L61.3713499,51.7391351 L58.711151,55.0512651 L50.1524434,56.8976619 L44.3588841,56.8789845 L40.1173298,58.5990864 L36.4992458,56.177247 L39.5730163,54.7630991 L46.1198984,54.2792649 L53.760744,50.610485 L59.8113402,50.4237107 L64.7448486,46.0336265 L61.0449397,45.1735755 L59.8184554,44.1142987 L54.9036245,44.1240821 L57.6518741,40.5558046 L58.0378743,36.978633 L56.168353,36.7420523 L54.9916752,38.5128501 L53.2715733,37.9596425 L52.5600524,30.2387509 L56.5641365,25.3648324 L63.4454335,25.1184682 L65.2455815,22.6957394 L63.1199126,21.7565318 L59.1256119,21.5190616 L57.0986666,20.1938539 L55.9913621,14.144147 L62.8130692,14.2828936 L62.8130692,17.3193093 L67.481536,17.7835767 L67.3134392,15.589424 L62.8157374,9.27289674 L62.1139999,4.70582166 L68.7080203,5.24035178 L69.5689606,2.46097308 L72.8704178,3.1529272 L76.6690503,0.66082508 L81.8587062,5.82290955 L88.3041966,6.18667464 L90.8950222,8.73836663 L94.8137238,8.64320071 Z" id="Path-15"></path>
                <path d="M68.026739,52.5022413 L67.8693149,54.6279101 L71.5567723,54.3210667 L74.8582295,49.2292449 L71.7337631,48.5968807 L68.026739,52.5022413 Z" id="Path-16"></path>
                <path d="M22.0749374,52.104679 L20.6803563,54.4482511 L22.8753985,56.4849798 L27.1854366,56.019823 L26.4934825,53.7144951 L23.8528504,54.3370759 L22.0749374,52.104679 Z" id="Path-17"></path>
                <path d="M15.4995944,50.3685679 L15.1331611,52.9682875 L17.7035306,55.1028504 L19.819416,52.4533242 L15.4995944,50.3685679 Z" id="Path-18"></path>
                <path d="M9.20885986,47.3926315 L10.1391735,50.3205402 L13.2921007,47.5820739 L9.20885986,47.3926315 Z" id="Path-19"></path>
                <path d="M0.331746642,34.7026554 L0.242806523,38.1722094 L3.07021289,38.1722094 L3.01062301,34.1494479 L0.331746642,34.7026554 Z" id="Path-20"></path>
                <circle id="Oval-1" cx="6.83060109" cy="45.0819672" r="1.36612022"></circle>
                <circle id="Oval-2" cx="140.255009" cy="23.6794171" r="2.73224044"></circle>
                <path d="M151.680257,28.6618426 L154.05229,27.0306808 L157.987001,30.2814421 L157.531627,32.9825535 L154.713115,31.2624516 L151.253344,31.2624516 L151.680257,28.6618426 Z" id="Path-21"></path>
                <path d="M162.14584,31.69559 L162.136057,34.3548995 L165.42862,34.3548995 L165.42862,32.1794242 L162.14584,31.69559 Z" id="Path-22"></path>
                <path d="M168.351193,35.431075 L166.947717,37.3192737 L169.034253,38.2486979 L172.930719,38.1508638 L173.800554,35.0859873 L168.351193,35.431075 Z" id="Path-23"></path>
                <path d="M174.509406,41.4309754 L172.817765,46.5316911 L173.025885,49.6161344 L173.915286,55.4292606 L179.174316,51.0391763 L184.434234,51.0489598 L184.592548,48.21177 L174.509406,41.4309754 Z" id="Path-24"></path>
                <path d="M133.237634,24.7796064 L132.823173,27.3001693 L134.920381,26.9835425 L135.789326,24.621293 L134.414312,22.524085 L133.237634,24.7796064 Z" id="Path-25"></path>
            </g>
            <path d="M23.9782559,1.60092213 C22.9856842,18.6454064 25.7045843,22.3915642 22.9856842,39.9003159 C23.9782562,46.4320782 1.47462709,68.7809512 5.62813069,77.7585667 C16.0074428,78.9806039 46.7255806,86.9443021 46.7255806,86.9443021 C46.7255806,86.9443021 53.2822461,98.7217526 122.221511,101.557164 C122.968608,108.521175 118.612321,113.953637 122.968608,113.953637 C150.328367,122.436746 183.574183,122.436746 183.574183,122.436746 C183.574183,122.436746 193.747154,90.7580561 191.025586,25.3070213 C109.453267,18.3038763 43.4241234,0 43.4241234,0 C43.4241234,0 41.8036344,1.60092213 41.8036344,6.82526469 C45.5995987,8.30433885 45.5995987,10.6443534 45.5995987,10.6443534 C45.5995987,10.6443534 43.4241234,18.0868625 39.368454,22.3915642 C33.7803464,23.3120944 35.8072917,14.7747325 35.8072917,14.7747325 C35.8072917,14.7747325 39.9003159,13.3374602 39.9003159,9.94884164 C28.2464922,1.60092213 28.2144738,1.60092195 23.9782559,1.60092213 Z" id="region14" fill="#00B6EF" sketch:type="MSShapeGroup"></path>
            <path d="M5.47337489,76.7410918 C8.89579064,84.2752092 3.42597329,88.0605006 1.07083903,94.5789219 C5.47337503,104.004796 0.873391963,111.72124 0.873391963,111.72124 C0.873391963,111.72124 0.873391963,117.127021 8.89579064,128.168047 C7.75557832,136.768556 13.1275615,144.595287 13.1275615,144.595287 C13.1275615,144.595287 10.4575791,146.401661 10.4575791,149.83386 C13.1275615,149.83386 18.5226691,161.693135 18.5226691,161.693135 C18.5226691,161.693135 15.9718665,172.074226 17.4456042,176.501665 C33.8657289,179.991675 44.8364925,194.415984 44.8364925,194.415984 C44.8364925,194.415984 43.3351833,204.218963 52.1429232,205.919499 C65.537305,207.111296 74.6109759,206.94142 74.6109759,206.94142 L74.6109759,202.956014 L70.9617629,202.956014 C70.9617629,202.956014 72.2896388,196.953445 76.0473588,191.013135 C78.5172259,189.627448 78.8534196,192.174693 80.5584016,189.627448 C55.7112008,147.247481 40.7158968,137.581469 36.3160291,123.303023 C40.7158968,97.1421761 46.6971198,87.008339 46.6971198,87.008339 C46.6971198,87.008339 10.4575791,77.5743648 5.47337489,76.7410918 Z" id="region13" fill="#FFFFFF" sketch:type="MSShapeGroup"></path>
            <path d="M47.801756,88.4331597 L122.287326,101.123136 L121.357013,113.539176 L201.634364,122.826304 L201.597009,169.660391 L190.660932,170.92512 L186.845401,230.209045 L133.725026,228.451588 L132.99038,234.878401 L69.7539561,207.89219 L75.2700222,206.944089 L75.2700222,202.591359 L71.7088599,202.591359 L76.5721055,191.086066 L81.8729366,189.858692 L36.2021858,122.806737 L47.801756,88.4331597 Z" id="region12" fill="#FF6601" sketch:type="MSShapeGroup"></path>
            <path d="M151.449012,229.079505 L166.990409,248.948728 L184.070469,270.993426 L194.729053,259.6838 L246.220045,308.054773 L247.959714,274.782275 L280.96717,259.500583 L285.768158,244.476819 L272.26349,210.547942 L237.98419,209.775942 L219.304986,194.986979 L218.849613,178.122154 L190.972222,178.477914 L186.425603,229.202243 L151.449012,229.079505 Z" id="region11" fill="#00B6EF" sketch:type="MSShapeGroup"></path>
            <path d="M192.105319,24.7129013 L240.735997,24.7129013 L247.143243,28.8041467 L253.6839,80.2008624 L249.788323,99.2785178 L261.117515,128.141365 L270.781748,149.280652 L269.737591,194.117145 L273.19914,208.938126 L238.66725,209.475324 L219.32989,195.05991 L219.646516,177.659665 L190.764102,178.488587 L191.061162,171.168815 L201.819359,170.695654 L202.591359,123.050433 L185.095059,121.077741 L192.105319,24.7129013 Z" id="region10" fill="#FFFFFF" sketch:type="MSShapeGroup"></path>
            <path d="M248.210525,28.0944046 L261.935764,26.7478512 L261.935764,20.5558402 L265.395534,20.5558402 L270.676799,31.3905254 L279.818064,31.3905254 L291.12769,36.7287113 L314.303706,33.2689407 L292.828225,48.9882172 L292.810437,53.6362278 L298.824567,50.7278859 L299.299508,53.9332878 L321.344205,40.6260673 L318.060536,50.3543374 L327.712318,49.3671021 L328.959258,54.6679332 L348.056481,46.722023 L348.687955,50.637167 L356.83487,52.9531677 L356.361709,58.0138604 L324.784409,71.8280396 L324.467782,76.9901241 L331.040457,72.3474499 L325.227331,95.0431893 L332.545324,111.963157 L334.265426,149.449639 L333.335112,164.31509 L322.936233,169.140981 L313.64377,153.996257 L313.663337,148.044385 L294.345543,126.652507 L284.218821,129.656905 L263.161359,130.288379 L249.681594,98.6986282 L254.109033,80.7095998 L248.210525,28.0944046 Z" id="region9" fill="#008FCC" sketch:type="MSShapeGroup"></path>
            <path d="M263.686105,128.89202 L281.972194,130.809569 L294.806253,126.122424 L313.34671,147.078495 L312.87177,155.440645 L323.50545,171.103 L314.984987,196.132528 L308.736054,202.262281 L309.349741,224.737449 L301.163693,238.590762 L301.619066,245.195455 L323.663764,241.911786 L321.785348,247.724912 L326.257258,251.761014 L318.288223,251.919328 L321.349542,257.453182 L327.85818,256.522868 L326.630806,259.452556 L332.659167,265.978982 L324.215192,262.437386 L320.894168,262.912326 L319.471126,268.471084 L305.88997,256.946223 L300.272513,256.473062 L301.695554,261.576446 L292.221653,262.841174 L281.543502,259.596639 L286.782075,244.416339 L274.104551,210.611979 L270.152052,193.330914 L272.208348,146.571536 L263.686105,128.89202 Z" id="region8" fill="#FF6601" sketch:type="MSShapeGroup"></path>
            <path d="M333.489868,110.945682 L341.738175,109.522641 L344.071963,95.5056779 L339.802838,87.4975097 L341.839566,71.24815 L346.368397,71.3673298 L347.771872,61.8738616 L365.250384,60.8990779 L364.953324,72.4061504 L360.127433,82.1344205 L369.22245,77.4846311 L375.528304,80.7683003 L375.092498,90.0803307 L368.962745,99.8708589 L368.526938,105.683985 L376.579577,106.614299 L397.035804,99.1433288 L397.018016,126.640056 L382.840961,144.630863 L364.156421,138.164916 L359.506631,148.248947 L334.774163,157.06647 L333.489868,110.945682 Z" id="region7" fill="#FFFFFF" sketch:type="MSShapeGroup"></path>
            <path d="M314.90672,197.119763 L323.919911,168.794114 L333.432946,165.17603 L335.748947,156.611097 L362.06277,148.741675 L365.262836,137.887423 L383.296334,144.195056 L383.68945,151.765639 L388.928023,157.774434 L396.738744,156.826332 L404.746912,142.512309 L412.198315,137.825165 L416.961948,129.79743 L426.336236,127.938582 L442.105319,140.772641 L442.105319,146.585767 L438.561945,146.585767 L438.088784,152.695953 L448.309782,157.123392 L447.379468,162.735513 L452.26406,167.516934 L448.702897,173.095258 L443.877006,171.729138 L445.17909,176.492771 L434.938525,184.931409 L433.218423,191.991476 L419.889857,184.141621 L408.896858,185.861723 L400.29457,179.157417 L380.843366,188.803862 L314.90672,197.119763 Z" id="region6" fill="#00B6EF" sketch:type="MSShapeGroup"></path>
            <path d="M326.607682,252.597051 L338.867188,251.825051 L339.260303,244.071252 L344.06129,250.53542 L348.709301,249.130166 L346.375512,241.950919 L370.830487,237.050319 L376.049493,242.742486 L398.074624,238.510716 L402.110727,242.210624 L400.408413,234.36077 L405.709244,233.885829 L411.168389,216.055114 L432.047971,191.973688 L420.460852,184.26258 L409.307761,185.192893 L401.0221,178.570412 L381.236481,188.810977 L315.639586,196.109403 L309.687713,201.568548 L309.390653,225.587716 L301.305997,239.168872 L303.147057,244.108607 L324.179616,241.223389 L322.717441,247.491889 L326.607682,252.597051 Z" id="region5" fill="#FFFFFF" sketch:type="MSShapeGroup"></path>
            <path d="M346.275899,241.424394 L348.134748,248.464894 L361.835084,245.302183 L371.780368,256.332536 L387.440944,248.761954 L393.867757,256.812813 L399.086763,259.324482 L399.396274,272.942993 L423.358521,301.072974 L430.834828,302.439094 L434.668147,286.524149 L406.652009,233.763092 L400.282118,233.466032 L402.598119,243.946736 L398.188468,239.1582 L376.044157,242.461436 L370.901639,237.774291 L346.275899,241.424394 Z" id="region4" fill="#008FCC" sketch:type="MSShapeGroup"></path>
            <path d="M396.534181,98.5901212 L400.822874,94.0808572 L407.742415,97.8572547 L441.052268,89.7352431 L455.956853,99.5773566 L457.696522,115.593693 L452.571792,125.675945 L445.570426,121.565133 L445.867486,125.93565 L452.610926,131.570896 L449.30769,147.626366 L439.188083,121.906663 L436.062728,121.748349 L437.78283,136.384335 L426.314891,126.56001 L416.725367,129.249559 L411.659338,137.099414 L405.984958,139.925931 L397.67973,157.048682 L388.604281,157.365309 L383.954491,151.294257 L383.499118,144.152365 L398.325435,126.022811 L396.534181,98.5901212 Z" id="region3" fill="#FF6600" sketch:type="MSShapeGroup"></path>
            <path d="M400.596966,92.9655482 L408.194231,97.8305726 L441.169669,89.5449112 L456.686162,99.8050433 L457.161103,104.333874 L466.731059,100.948813 L465.503686,98.3553193 L460.46256,97.1297245 L463.144994,91.8288934 L474.315873,88.2108094 L479.059939,83.3849186 L484.677396,84.8079605 L489.819914,82.4919598 L486.219618,75.9655339 L483.254355,76.4209073 L484.06371,80.1386043 L480.027607,79.6654429 L476.112463,71.221468 L457.250043,77.6856358 L451.753543,62.7757144 L448.412953,50.9484574 L431.473418,56.919897 L424.53431,67.7937158 L416.885459,72.5751366 L406.701816,74.1369251 L406.246442,80.0069729 L409.233052,82.8157018 L400.596966,92.9655482 Z" id="region2" fill="#FFFFFF" sketch:type="MSShapeGroup"></path>
            <path d="M450.108151,50.6176002 L457.306964,77.4454975 L476.884463,70.6824909 L476.352601,56.8629753 L498.434654,42.4528973 L499.580203,33.1977886 L490.326873,27.0680356 L487.043204,14.39229 L483.266806,13.9369166 L480.123662,17.5372125 L477.15662,13.3232297 L472.843024,13.79817 L464.000598,47.6843551 L450.108151,50.6176002 Z" id="region1" fill="#008FCC" sketch:type="MSShapeGroup" ng-click="mapClicked('region1')"></path>
        </g>
    </g>
    
        <g transform="translate(80, 40)">
            <circle cx="10" cy="10" r="10" stroke="black" stroke-width="1" fill="{{player.color}}" />
            <text x="0" y="40" fill="black">region 14</text>
        </g>
        
        <g transform="translate(215, 100)">
            <circle cx="10" cy="10" r="10" stroke="black" stroke-width="1" fill="{{player.color}}" />
            <text x="0" y="40" fill="black">region 10</text>
        </g>
    <g transform="translate(280, 80)">
            <circle cx="10" cy="10" r="10" stroke="black" stroke-width="1" fill="{{player.color}}" />
            <text x="0" y="40" fill="black">region 9</text>
        </g><g transform="translate(355, 90)">
            <circle cx="10" cy="10" r="10" stroke="black" stroke-width="1" fill="{{player.color}}" />
            <text x="0" y="40" fill="black">region 7</text>
        </g><g transform="translate(420, 100)">
            <circle cx="10" cy="10" r="10" stroke="black" stroke-width="1" fill="{{player.color}}" />
            <text x="0" y="40" fill="black">region 3</text>
        </g><g transform="translate(425, 62)">
            <circle cx="10" cy="10" r="10" stroke="black" stroke-width="1" fill="{{player.color}}" />
            <text x="0" y="40" fill="black">region 2</text>
        </g><g transform="translate(460, 30)">
            <circle cx="10" cy="10" r="10" stroke="black" stroke-width="1" fill="{{player.color}}" />
            <text x="0" y="40" fill="black">region 1</text>
        </g><g transform="translate(15, 130)">
            <circle cx="10" cy="10" r="10" stroke="black" stroke-width="1" fill="{{player.color}}" />
            <text x="0" y="40" fill="black">region 13</text>
        </g><g transform="translate(110, 140)">
            <circle cx="10" cy="10" r="10" stroke="black" stroke-width="1" fill="{{player.color}}" />
            <text x="0" y="40" fill="black">region 12</text>
        </g><g transform="translate(210, 220)">
            <circle cx="10" cy="10" r="10" stroke="black" stroke-width="1" fill="{{player.color}}" />
            <text x="0" y="40" fill="black">region 11</text>
        </g><g transform="translate(280, 180)">
            <circle cx="10" cy="10" r="10" stroke="black" stroke-width="1" fill="{{player.color}}" />
            <text x="0" y="40" fill="black">region 8</text>
        </g><g transform="translate(360, 160)">
            <circle cx="10" cy="10" r="10" stroke="black" stroke-width="1" fill="{{player.color}}" />
            <text x="0" y="40" fill="black">region 6</text>
        </g><g transform="translate(355, 208)">
            <circle cx="10" cy="10" r="10" stroke="black" stroke-width="1" fill="{{player.color}}" />
            <text x="0" y="40" fill="black">region 5</text>
        </g><g transform="translate(395, 248)">
            <circle cx="10" cy="10" r="10" stroke="black" stroke-width="1" fill="{{player.color}}" />
            <text x="0" y="40" fill="black">region 4</text>
        </g><g transform="translate(60, 310)">
            <circle cx="10" cy="10" r="10" stroke="black" stroke-width="1" fill="{{player.color}}" />
            <text x="0" y="40" fill="black">region 15</text>
        </g>
    
    
    
</svg>